<svg xmlns="http://www.w3.org/2000/svg" width="24.427" height="25.534" viewBox="0 0 24.427 25.534"><path d="M468.213,1185.753a2.764,2.764,0,0,1,1.9.766,2.45,2.45,0,0,1,.814,1.787v17.874a2.45,2.45,0,0,1-.814,1.787,2.764,2.764,0,0,1-1.9.766h-19a2.539,2.539,0,0,1-1.9-.766,2.45,2.45,0,0,1-.814-1.787v-17.874a2.45,2.45,0,0,1,.814-1.787,2.765,2.765,0,0,1,1.9-.766h1.357V1183.2h2.714v2.553h10.857V1183.2h2.714v2.553Zm0,20.428v-14.044h-19v14.044Zm-16.285-11.49h6.785v6.384h-6.785Z" transform="translate(-446.5 -1183.2)"/></svg>