<svg xmlns="http://www.w3.org/2000/svg" width="20" height="20.2" viewBox="0 0 20 20.2"><defs></defs><path class="a" d="M81.8,211.2,77.2,215l-1.3-1.5,4.6-3.8Zm-2.3,3.2a8.6,8.6,0,0,1,6.4-2.6,9,9,0,0,1,6.4,2.6,8.6,8.6,0,0,1,2.6,6.4,9,9,0,0,1-2.6,6.4,8.6,8.6,0,0,1-6.4,2.6,9,9,0,0,1-6.4-2.6,8.6,8.6,0,0,1-2.6-6.4A9,9,0,0,1,79.5,214.4ZM81,225.8a6.662,6.662,0,0,0,4.9,2.1,6.505,6.505,0,0,0,4.9-2.1,6.634,6.634,0,0,0,2-5,6.9,6.9,0,1,0-13.8,0A6.419,6.419,0,0,0,81,225.8Zm5.4-10v5.3l4,2.4-.8,1.2-4.7-2.9v-6Zm9.5-2.3L94.6,215,90,211.1l1.3-1.5Z" transform="translate(-75.9 -209.6)"/></svg>