<svg xmlns="http://www.w3.org/2000/svg" xmlns:xlink="http://www.w3.org/1999/xlink" width="463.664" height="473.934" viewBox="0 0 463.664 473.934"><defs><filter id="a" x="80.616" y="137.93" width="298" height="298" filterUnits="userSpaceOnUse"><feOffset dx="10" dy="3" input="SourceAlpha"/><feGaussianBlur stdDeviation="3" result="b"/><feFlood flood-opacity="0.161"/><feComposite operator="in" in2="b"/><feComposite in="SourceGraphic"/></filter></defs><g class="a" transform="translate(-175.659 -236.236)"><path class="c" d="M 310.0127868652344 709.6060791015625 C 306.4549865722656 708.2947998046875 302.8889770507813 706.8846435546875 299.40966796875 705.4130859375 C 284.888916015625 699.2708129882813 270.8871459960938 691.6708374023438 257.7933349609375 682.8242797851563 C 244.8191986083984 674.0593872070313 232.6197967529297 663.9937133789063 221.5340270996094 652.906982421875 C 210.4454956054688 641.8185424804688 200.3798522949219 629.619140625 191.6166076660156 616.6475830078125 C 185.9860229492188 608.3131103515625 180.8139038085938 599.5300903320313 176.2415161132813 590.538818359375 L 225.0230102539063 521.7221069335938 C 243.4126434326172 594.8182373046875 308.2969360351563 648.6981811523438 383.4595336914063 653.33447265625 L 310.0127868652344 709.6060791015625 Z M 565.2755126953125 514.0355224609375 C 567.59814453125 502.6229858398438 568.7753295898438 490.8987426757813 568.7753295898438 479.1654357910156 C 568.7753295898438 382.9459533691406 490.4946594238281 304.6657104492188 394.2747192382813 304.6657104492188 C 388.9749145507813 304.6657104492188 383.6324157714844 304.9071044921875 378.3768005371094 305.3836364746094 L 427.0136108398438 236.7710418701172 C 432.755615234375 237.5249328613281 438.5199279785156 238.490966796875 444.1514892578125 239.6432495117188 C 459.8794860839844 242.8617706298828 475.3522033691406 247.6646575927734 490.1396789550781 253.9185485839844 C 504.6553649902344 260.0583190917969 518.6571655273438 267.6582946777344 531.7560424804688 276.5072937011719 C 544.73193359375 285.2743530273438 556.931640625 295.3400268554688 568.0162353515625 306.4246520996094 C 579.10498046875 317.5143127441406 589.1703491210938 329.7137145996094 597.9326782226563 342.6840209960938 C 606.7828979492188 355.7841796875 614.3829345703125 369.7862548828125 620.521484375 384.3012390136719 C 626.7752685546875 399.08642578125 631.5784301757813 414.55908203125 634.7977294921875 430.2894287109375 C 636.634765625 439.2675170898438 637.9812622070313 448.4888610839844 638.8007202148438 457.7037963867188 L 565.2755126953125 514.0355224609375 Z"/><path class="d" d="M 309.9273986816406 709.04150390625 L 382.0996704101563 653.7463989257813 C 307.6469116210938 648.5746459960938 243.4942016601563 595.2322998046875 224.8056335449219 522.8933715820313 L 176.8242950439453 590.581298828125 C 181.3535919189453 599.4605102539063 186.4679107666016 608.13330078125 192.0309600830078 616.36767578125 C 200.7763214111328 629.3128051757813 210.8215484619141 641.4874877929688 221.8875579833984 652.5534057617188 C 232.9508514404297 663.61767578125 245.1255035400391 673.662841796875 258.0732116699219 682.4100341796875 C 271.1403198242188 691.2384643554688 285.1134338378906 698.8228759765625 299.6044311523438 704.9525756835938 C 302.9923400878906 706.385498046875 306.4627075195313 707.7600708007813 309.9273986816406 709.04150390625 M 566.025634765625 512.830810546875 L 638.2781372070313 457.4742431640625 C 637.4581909179688 448.3697204589844 636.1228637695313 439.2598876953125 634.307861328125 430.3896484375 C 631.0952758789063 414.691650390625 626.3018798828125 399.2508239746094 620.06103515625 384.4960021972656 C 613.9349365234375 370.0107116699219 606.3505249023438 356.037353515625 597.518310546875 342.9639587402344 C 588.7738037109375 330.0199584960938 578.7288818359375 317.8453063964844 567.6626586914063 306.7782592773438 C 556.6005249023438 295.716064453125 544.4255981445313 285.6708984375 531.4761352539063 276.9216613769531 C 518.4039916992188 268.0907287597656 504.4308471679688 260.5062561035156 489.9449157714844 254.3790130615234 C 475.1878051757813 248.1380157470703 459.7469787597656 243.3450164794922 444.05126953125 240.1331329345703 C 438.5290222167969 239.0032196044922 432.8785095214844 238.0527038574219 427.2471618652344 237.3061828613281 L 379.4095458984375 304.7913513183594 C 384.3316345214844 304.3759765625 389.3219299316406 304.1657104492188 394.2747192382813 304.1657104492188 C 490.7703857421875 304.1657104492188 569.2753295898438 382.6702575683594 569.2753295898438 479.1654357910156 C 569.2753295898438 490.4854125976563 568.1826171875 501.7976684570313 566.025634765625 512.830810546875 M 310.098388671875 710.1702880859375 C 306.4344482421875 708.82470703125 302.8042602539063 707.3917236328125 299.2149047851563 705.8735961914063 C 284.668212890625 699.7203369140625 270.63720703125 692.1054077148438 257.5133666992188 683.2385864257813 C 244.5137939453125 674.4564208984375 232.2891387939453 664.3701171875 221.1804351806641 653.260498046875 C 210.0707855224609 642.1509399414063 199.9844970703125 629.9271240234375 191.2023162841797 616.927490234375 C 185.4814300537109 608.4594116210938 180.2812652587891 599.6134033203125 175.6590270996094 590.4959716796875 L 225.2456207275391 520.54345703125 C 243.1394348144531 593.6296997070313 307.3295593261719 648.747802734375 384.8319702148438 652.912841796875 L 310.098388671875 710.1702880859375 Z M 564.5127563476563 515.2496948242188 C 566.9779663085938 503.6051940917969 568.2753295898438 491.5332336425781 568.2753295898438 479.1654357910156 C 568.2753295898438 383.2217712402344 490.2183227539063 305.1657104492188 394.2747192382813 305.1657104492188 C 388.5592651367188 305.1657104492188 382.9147338867188 305.4420166015625 377.3388977050781 305.9832458496094 L 426.7798461914063 236.2362518310547 C 432.6502075195313 236.9996032714844 438.4806823730469 237.9725952148438 444.2517395019531 239.1534271240234 C 460.0143127441406 242.3790130615234 475.5186157226563 247.1921844482422 490.3344421386719 253.4580078125 C 504.8820190429688 259.6112976074219 518.912109375 267.2271423339844 532.035888671875 276.093017578125 C 545.0355834960938 284.8761291503906 557.2601928710938 294.9615478515625 568.3698120117188 306.0711364746094 C 579.478515625 317.1807250976563 589.5648193359375 329.404541015625 598.3469848632813 342.4041442871094 C 607.2138061523438 355.5288391113281 614.82958984375 369.5588989257813 620.9820556640625 384.1064758300781 C 627.2487182617188 398.9223022460938 632.0618896484375 414.4275512695313 635.2875366210938 430.1891784667969 C 637.1546630859375 439.3141174316406 638.5026245117188 448.5902404785156 639.3229370117188 457.9335327148438 L 564.5127563476563 515.2496948242188 Z"/></g><g class="e" transform="matrix(1, 0, 0, 1, 0, 0)"><text class="b" transform="translate(80.62 309.93)"><tspan x="0" y="0">UT</tspan></text></g></svg>