<svg xmlns="http://www.w3.org/2000/svg" xmlns:xlink="http://www.w3.org/1999/xlink" width="127.001" height="127.001" viewBox="0 0 127.001 127.001"><defs><filter id="a" x="0" y="0" width="127.001" height="127.001" filterUnits="userSpaceOnUse"><feOffset dy="3" input="SourceAlpha"/><feGaussianBlur stdDeviation="3" result="b"/><feFlood flood-opacity="0.161"/><feComposite operator="in" in2="b"/><feComposite in="SourceGraphic"/></filter></defs><g transform="translate(9 6)"><g class="c" transform="matrix(1, 0, 0, 1, -9, -6)"><circle class="a" cx="54.501" cy="54.501" r="54.501" transform="translate(9 6)"/></g><path class="b" d="M17.291,33.539A17.452,17.452,0,0,1,5.064,28.628a16.415,16.415,0,0,1,0-23.716,17.679,17.679,0,0,1,23.893-.517l-5.1,4.838A10.375,10.375,0,0,0,17.291,6.9,10.039,10.039,0,0,0,7.112,16.769,10.039,10.039,0,0,0,17.291,26.64a10.23,10.23,0,0,0,9.517-6.368H17.073v-7H34.2a16.42,16.42,0,0,1-4.687,15.36A17.452,17.452,0,0,1,17.291,33.539ZM48.482,23.88H44.1V18.042H38.086V13.8H44.1V7.959h4.378V13.8H54.5v4.245H48.482v5.837Z" transform="translate(27.949 37.731)"/></g></svg>