<svg xmlns="http://www.w3.org/2000/svg" xmlns:xlink="http://www.w3.org/1999/xlink" width="689.991" height="410.833" viewBox="0 0 689.991 410.833"><defs><filter id="a" x="0" y="0" width="689.991" height="410.833" filterUnits="userSpaceOnUse"><feOffset dx="10" dy="3" input="SourceAlpha"/><feGaussianBlur stdDeviation="3" result="b"/><feFlood flood-opacity="0.161"/><feComposite operator="in" in2="b"/><feComposite in="SourceGraphic"/></filter></defs><g transform="translate(0 6)"><g class="b" transform="matrix(1, 0, 0, 1, 0, -6)"><path class="a" d="M220.244-113.717v-10.56H328.872v10.56H317.367q-17.6,0-27.749,19.008-4.738,8.448-4.738,40.973V101.707q0,56.6-9.475,89.971a119.019,119.019,0,0,1-13.536,29.99,92.726,92.726,0,0,1-22.335,24.288,109.285,109.285,0,0,1-31.641,16.474q-18.1,6.125-41.455,6.125-25.38,0-44.331-5.491T89.619,247.014a90.689,90.689,0,0,1-22.335-25.344A143.345,143.345,0,0,1,53.072,188.3q-7.445-25.766-7.445-94.618V-56.271q0-17.741-1.861-28.935t-5.922-17.53a20.762,20.762,0,0,0-10.321-8.659A42.277,42.277,0,0,0,12.8-113.717H.957v-10.56H133.951v10.56H122.106a43.39,43.39,0,0,0-14.213,2.112,19.967,19.967,0,0,0-10.152,8.237Q93.68-97.244,91.481-86.05t-2.2,29.779V111a442.086,442.086,0,0,0,2.707,49.421Q94.7,184.5,103.156,203.295a72.421,72.421,0,0,0,24.2,29.991q15.736,11.194,41.793,11.194a93.893,93.893,0,0,0,28.764-4.435,99.207,99.207,0,0,0,25.211-12.038,85.785,85.785,0,0,0,19.8-18.374,74.543,74.543,0,0,0,12.521-23.443q8.8-24.922,8.8-87.015V-56.271q0-35.482-6.43-44.775-8.8-12.672-26.057-12.672Zm451.7-10.56v90.394h-5.076Q663.15-70.21,649.783-85.205t-39.424-15H567.042V193.369q0,19.43,2.2,30.624t6.26,16.685a17.558,17.558,0,0,0,10.152,6.97,60.706,60.706,0,0,0,14.213,1.478h10.491v10.56H480.072v-10.56H490.9a53.447,53.447,0,0,0,14.213-1.69,18.3,18.3,0,0,0,10.152-7.392q4.061-5.7,6.26-16.685t2.2-29.99V-100.2H486.84a98.8,98.8,0,0,0-24.534,2.746,41.26,41.26,0,0,0-18.443,10.138q-7.783,7.392-12.352,20.275t-5.584,33.159h-8.46v-90.394Z" transform="translate(-0.96 130.28)"/></g></g></svg>